<?xml version="1.0" encoding="UTF-8"?>
<!DOCTYPE svg
PUBLIC "-//W3C//DTD SVG 1.1//EN"
       "http://www.w3.org/Graphics/SVG/1.1/DTD/svg11.dtd">
<svg viewBox="140 242 874 761" width="734px" height="519px" xmlns="http://www.w3.org/2000/svg" version="1.1">
   <line x1="767" y1="652" x2="757" y2="652" style="stroke:#b0b;stroke-width:1;"/>
   <line x1="732" y1="299" x2="742" y2="299" style="stroke:#b0b;stroke-width:1;"/>
   <line x1="757" y1="652" x2="732" y2="299" style="stroke:#b0b;stroke-width:1;"/>
   <line x1="759.5" y1="652" x2="763.03553390593" y2="655.53553390593" style="stroke:#b0b;stroke-width:2;"/>
   <line x1="759.5" y1="652" x2="763.03553390593" y2="648.46446609407" style="stroke:#b0b;stroke-width:2;"/>
   <line x1="737" y1="299" x2="733.46446609407" y2="302.53553390593" style="stroke:#b0b;stroke-width:2;"/>
   <line x1="737" y1="299" x2="733.46446609407" y2="295.46446609407" style="stroke:#b0b;stroke-width:2;"/>
   <line x1="534" y1="696" x2="544" y2="696" style="stroke:#0b0;stroke-width:1;"/>
   <line x1="757" y1="632" x2="767" y2="632" style="stroke:#0b0;stroke-width:1;"/>
   <line x1="544" y1="696" x2="757" y2="632" style="stroke:#0b0;stroke-width:1;"/>
   <line x1="541.5" y1="696" x2="537.96446609407" y2="699.53553390593" style="stroke:#0b0;stroke-width:2;"/>
   <line x1="541.5" y1="696" x2="537.96446609407" y2="692.46446609407" style="stroke:#0b0;stroke-width:2;"/>
   <line x1="762" y1="632" x2="758.46446609407" y2="635.53553390593" style="stroke:#0b0;stroke-width:2;"/>
   <line x1="762" y1="632" x2="758.46446609407" y2="628.46446609407" style="stroke:#0b0;stroke-width:2;"/>
   <line x1="417" y1="716" x2="407" y2="716" style="stroke:#0bf;stroke-width:1;"/>
   <line x1="282" y1="370" x2="272" y2="370" style="stroke:#0bf;stroke-width:1;"/>
   <line x1="407" y1="716" x2="282" y2="370" style="stroke:#0bf;stroke-width:1;"/>
   <line x1="409.5" y1="716" x2="413.03553390593" y2="719.53553390593" style="stroke:#0bf;stroke-width:2;"/>
   <line x1="409.5" y1="716" x2="413.03553390593" y2="712.46446609407" style="stroke:#0bf;stroke-width:2;"/>
   <line x1="277" y1="370" x2="280.53553390593" y2="373.53553390593" style="stroke:#0bf;stroke-width:2;"/>
   <line x1="277" y1="370" x2="280.53553390593" y2="366.46446609407" style="stroke:#0bf;stroke-width:2;"/>
   <line x1="416" y1="307" x2="406" y2="307" style="stroke:#0bf;stroke-width:1;"/>
   <line x1="282" y1="370" x2="272" y2="370" style="stroke:#0bf;stroke-width:1;"/>
   <line x1="406" y1="307" x2="282" y2="370" style="stroke:#0bf;stroke-width:1;"/>
   <line x1="408.5" y1="307" x2="412.03553390593" y2="310.53553390593" style="stroke:#0bf;stroke-width:2;"/>
   <line x1="408.5" y1="307" x2="412.03553390593" y2="303.46446609407" style="stroke:#0bf;stroke-width:2;"/>
   <line x1="277" y1="370" x2="280.53553390593" y2="373.53553390593" style="stroke:#0bf;stroke-width:2;"/>
   <line x1="277" y1="370" x2="280.53553390593" y2="366.46446609407" style="stroke:#0bf;stroke-width:2;"/>
   <line x1="533" y1="287" x2="543" y2="287" style="stroke:#cb0;stroke-width:1;"/>
   <line x1="732" y1="299" x2="742" y2="299" style="stroke:#cb0;stroke-width:1;"/>
   <line x1="543" y1="287" x2="732" y2="299" style="stroke:#cb0;stroke-width:1;"/>
   <line x1="540.5" y1="287" x2="536.96446609407" y2="290.53553390593" style="stroke:#cb0;stroke-width:2;"/>
   <line x1="540.5" y1="287" x2="536.96446609407" y2="283.46446609407" style="stroke:#cb0;stroke-width:2;"/>
   <line x1="737" y1="299" x2="733.46446609407" y2="302.53553390593" style="stroke:#cb0;stroke-width:2;"/>
   <line x1="737" y1="299" x2="733.46446609407" y2="295.46446609407" style="stroke:#cb0;stroke-width:2;"/>
   <rect width="117" height="20" x="767" y="602" style="fill:#007;stroke:black;"/>
   <text width="117" height="20" x="772" y="616" style="fill:#fff;" font-family="Arial" font-size="16px"> carts</text>
   <rect width="117" height="20" x="767" y="622" style="fill:#aea;stroke:black;"/>
   <text width="117" height="20" x="772" y="636" style="fill:black;" font-family="Arial" font-size="16px">id</text>
   <rect width="117" height="20" x="767" y="642" style="fill:none;stroke:black;"/>
   <text width="117" height="20" x="772" y="656" style="fill:black;" font-family="Arial" font-size="16px">user_id</text>
   <rect width="117" height="20" x="767" y="662" style="fill:none;stroke:black;"/>
   <text width="117" height="20" x="772" y="676" style="fill:black;" font-family="Arial" font-size="16px">date</text>
   <rect width="117" height="20" x="767" y="682" style="fill:none;stroke:black;"/>
   <text width="117" height="20" x="772" y="696" style="fill:black;" font-family="Arial" font-size="16px">is_paid</text>
   <rect width="117" height="20" x="417" y="666" style="fill:#007;stroke:black;"/>
   <text width="117" height="20" x="422" y="680" style="fill:#fff;" font-family="Arial" font-size="16px"> carts_postcards</text>
   <rect width="117" height="20" x="417" y="686" style="fill:none;stroke:black;"/>
   <text width="117" height="20" x="422" y="700" style="fill:black;" font-family="Arial" font-size="16px">cart_id</text>
   <rect width="117" height="20" x="417" y="706" style="fill:none;stroke:black;"/>
   <text width="117" height="20" x="422" y="720" style="fill:black;" font-family="Arial" font-size="16px">postcard_id</text>
   <rect width="117" height="20" x="417" y="726" style="fill:none;stroke:black;"/>
   <text width="117" height="20" x="422" y="740" style="fill:black;" font-family="Arial" font-size="16px">quantity</text>
   <rect width="117" height="20" x="416" y="257" style="fill:#007;stroke:black;"/>
   <text width="117" height="20" x="421" y="271" style="fill:#fff;" font-family="Arial" font-size="16px"> favourites</text>
   <rect width="117" height="20" x="416" y="277" style="fill:none;stroke:black;"/>
   <text width="117" height="20" x="421" y="291" style="fill:black;" font-family="Arial" font-size="16px">user_id</text>
   <rect width="117" height="20" x="416" y="297" style="fill:none;stroke:black;"/>
   <text width="117" height="20" x="421" y="311" style="fill:black;" font-family="Arial" font-size="16px">postcard_id</text>
   <rect width="117" height="20" x="155" y="340" style="fill:#007;stroke:black;"/>
   <text width="117" height="20" x="160" y="354" style="fill:#fff;" font-family="Arial" font-size="16px"> postcards</text>
   <rect width="117" height="20" x="155" y="360" style="fill:#aea;stroke:black;"/>
   <text width="117" height="20" x="160" y="374" style="fill:black;" font-family="Arial" font-size="16px">id</text>
   <rect width="117" height="20" x="155" y="380" style="fill:none;stroke:black;"/>
   <text width="117" height="20" x="160" y="394" style="fill:black;" font-family="Arial" font-size="16px">name</text>
   <rect width="117" height="20" x="155" y="400" style="fill:none;stroke:black;"/>
   <text width="117" height="20" x="160" y="414" style="fill:black;" font-family="Arial" font-size="16px">description</text>
   <rect width="117" height="20" x="155" y="420" style="fill:none;stroke:black;"/>
   <text width="117" height="20" x="160" y="434" style="fill:black;" font-family="Arial" font-size="16px">price</text>
   <rect width="117" height="20" x="155" y="440" style="fill:none;stroke:black;"/>
   <text width="117" height="20" x="160" y="454" style="fill:black;" font-family="Arial" font-size="16px">artist</text>
   <rect width="117" height="20" x="742" y="269" style="fill:#007;stroke:black;"/>
   <text width="117" height="20" x="747" y="283" style="fill:#fff;" font-family="Arial" font-size="16px"> users</text>
   <rect width="117" height="20" x="742" y="289" style="fill:#aea;stroke:black;"/>
   <text width="117" height="20" x="747" y="303" style="fill:black;" font-family="Arial" font-size="16px">id</text>
   <rect width="117" height="20" x="742" y="309" style="fill:none;stroke:black;"/>
   <text width="117" height="20" x="747" y="323" style="fill:black;" font-family="Arial" font-size="16px">first_name</text>
   <rect width="117" height="20" x="742" y="329" style="fill:none;stroke:black;"/>
   <text width="117" height="20" x="747" y="343" style="fill:black;" font-family="Arial" font-size="16px">last_name</text>
   <rect width="117" height="20" x="742" y="349" style="fill:none;stroke:black;"/>
   <text width="117" height="20" x="747" y="363" style="fill:black;" font-family="Arial" font-size="16px">email</text>
   <rect width="117" height="20" x="742" y="369" style="fill:none;stroke:black;"/>
   <text width="117" height="20" x="747" y="383" style="fill:black;" font-family="Arial" font-size="16px">password</text>
   <rect width="117" height="20" x="742" y="389" style="fill:none;stroke:black;"/>
   <text width="117" height="20" x="747" y="403" style="fill:black;" font-family="Arial" font-size="16px">address</text>
   <rect width="117" height="20" x="742" y="409" style="fill:none;stroke:black;"/>
   <text width="117" height="20" x="747" y="423" style="fill:black;" font-family="Arial" font-size="16px">type</text>
   <rect width="117" height="20" x="742" y="429" style="fill:none;stroke:black;"/>
   <text width="117" height="20" x="747" y="443" style="fill:black;" font-family="Arial" font-size="16px">is_blocked</text>
</svg>
